<?xml version="1.0" encoding="UTF-8"?>
<!DOCTYPE svg PUBLIC "-//W3C//DTD SVG 1.1//EN" "http://www.w3.org/Graphics/SVG/1.1/DTD/svg11.dtd">
<!-- Creator: CorelDRAW 2018 (64 Bit Versão de avaliação) -->
<svg xmlns="http://www.w3.org/2000/svg" xml:space="preserve" width="338.67mm" height="190.5mm" version="1.1" style="shape-rendering:geometricPrecision; text-rendering:geometricPrecision; image-rendering:optimizeQuality; fill-rule:evenodd; clip-rule:evenodd"
viewBox="0 0 33867 19050"
 xmlns:xlink="http://www.w3.org/1999/xlink">
 <defs>
  <style type="text/css">
   <![CDATA[
    .str3 {stroke:#FFFFFF;stroke-width:75;stroke-miterlimit:22.9256}
    .str2 {stroke:#FFFFFF;stroke-width:25;stroke-miterlimit:22.9256}
    .str1 {stroke:#FFFFFF;stroke-width:20;stroke-miterlimit:22.9256}
    .str0 {stroke:#FFFFFF;stroke-width:75;stroke-linecap:square;stroke-miterlimit:22.9256}
    .fil1 {fill:none}
    .fil0 {fill:#FFFFFF;fill-rule:nonzero}
   ]]>
  </style>
 </defs>
 <g id="Camada_x0020_1">
  <metadata id="CorelCorpID_0Corel-Layer"/>
  <path class="fil0" d="M14471.54 8277.25l0 2244.86c0,21.48 10.74,32.21 32.21,32.21l402.59 0c21.48,0 32.21,-10.73 32.21,-32.21l0 -2244.86c0,-21.47 -10.73,-32.21 -32.21,-32.21l-402.59 0c-21.47,0 -32.21,10.74 -32.21,32.21zm2612.03 1317.28c53.68,0 100.38,4.84 140.1,14.5 39.72,9.66 70.32,26.3 91.79,49.92 25.77,30.06 40.8,63.88 45.1,101.46 4.29,37.57 6.44,73.53 6.44,107.89 0,23.62 -1.08,46.16 -3.23,67.64 -2.14,21.46 -8.58,44.01 -19.32,67.63 -10.74,25.77 -27.91,54.21 -51.53,85.35 -23.62,31.14 -51.54,46.7 -83.74,46.7l-1037.08 0c-21.47,0 -32.21,10.74 -32.21,32.21l0 354.28c0,21.48 10.74,32.21 32.21,32.21l1172.35 0c47.24,0 97.16,-14.49 149.76,-43.48 52.61,-28.99 97.17,-58.51 133.67,-88.57 120.24,-105.21 188.95,-255.51 206.13,-450.91 4.29,-17.17 6.43,-35.42 6.43,-54.75 0,-21.47 0,-44.02 0,-67.64 0,-49.38 -3.21,-100.91 -9.66,-154.59 -6.44,-53.68 -17.71,-105.22 -33.81,-154.6 -16.1,-49.38 -36.5,-95.54 -61.2,-138.49 -24.69,-42.95 -55.28,-79.44 -91.79,-109.5 -62.27,-51.54 -129.9,-86.43 -202.91,-104.68 -73,-18.25 -142.78,-27.37 -209.35,-27.37l-360.72 0c-49.38,0 -95.01,-2.16 -136.88,-6.45 -41.87,-4.29 -74.61,-18.25 -98.23,-41.87 -25.77,-27.91 -40.8,-60.12 -45.09,-96.62 -4.3,-36.5 -6.45,-71.93 -6.45,-106.28 0,-21.48 1.08,-42.95 3.22,-64.42 2.15,-21.47 8.59,-42.94 19.33,-64.42 10.73,-23.61 28.45,-48.84 53.14,-75.68 24.69,-26.84 52.07,-40.26 82.13,-40.26l930.8 0c21.47,0 32.21,-10.74 32.21,-32.21l0 -354.28c0,-21.47 -10.74,-32.21 -32.21,-32.21l-1066.07 0c-51.53,0 -104.14,13.95 -157.82,41.87 -53.68,27.91 -98.77,56.9 -135.27,86.96 -124.53,103.07 -194.32,248 -209.35,434.8 -4.29,19.32 -6.44,38.65 -6.44,57.97 0,19.33 0,39.73 0,61.2 0,49.39 3.76,99.3 11.27,149.77 7.52,50.45 19.33,99.84 35.43,148.15 16.11,48.31 36.5,93.4 61.2,135.27 24.69,41.87 55.29,77.84 91.79,107.9 62.27,49.38 131.51,82.66 207.74,99.84 76.22,17.18 147.61,25.76 214.18,25.76l363.94 0zm995.21 -1317.28l0 2244.86c0,21.48 10.74,32.21 32.21,32.21l402.59 0c21.48,0 32.21,-10.73 32.21,-32.21l0 -2244.86c0,-21.47 -10.73,-32.21 -32.21,-32.21l-402.59 0c-21.47,0 -32.21,10.74 -32.21,32.21zm1723.1 418.69c0,-21.47 10.74,-32.2 32.21,-32.2l524.98 0c21.48,0 32.21,-10.74 32.21,-32.21l0 -354.28c0,-21.47 -10.73,-32.21 -32.21,-32.21l-1581.39 0c-21.47,0 -32.2,10.74 -32.2,32.21l0 354.28c0,21.47 10.73,32.21 32.2,32.21l524.98 0c21.48,0 32.22,10.73 32.22,32.2l0 1826.17c0,21.48 10.73,32.21 32.2,32.21l402.6 0c21.47,0 32.2,-10.73 32.2,-32.21l0 -1826.17zm351.07 1839.05c0,12.89 8.58,19.33 25.76,19.33l418.7 0c21.47,0 35.43,-10.73 41.87,-32.21l170.7 -550.75c6.44,-23.62 20.4,-35.42 41.87,-35.42l756.87 0c21.48,0 35.43,10.73 41.88,32.2l170.69 557.19c6.45,19.33 20.4,28.99 41.87,28.99l421.92 0c15.03,0 22.55,-6.44 22.55,-19.33l-647.37 -2099.93c-25.77,-83.74 -73.55,-136.34 -143.33,-157.81 -69.78,-21.47 -165.86,-32.21 -288.25,-32.21 -118.1,0 -211.5,10.74 -280.21,32.21 -68.71,21.47 -115.95,74.07 -141.71,157.81l-653.81 2099.93zm1339.83 -1078.95c0,4.3 0.53,7.52 1.61,9.66 1.07,2.15 1.61,4.3 1.61,6.45 0,15.03 -8.59,22.54 -25.77,22.54l-479.89 0c-17.17,0 -25.77,-7.51 -25.77,-22.54 0,-2.15 0.54,-4.3 1.62,-6.45 1.07,-2.14 1.61,-5.36 1.61,-9.66l225.45 -734.33c12.88,-38.65 24.69,-57.97 35.43,-57.97 10.73,0 18.25,3.76 22.54,11.27 4.29,7.51 9.66,23.09 16.11,46.7l225.45 734.33zm1046.74 1098.28l1101.5 0c122.39,0 227.6,-22.01 315.63,-66.03 88.04,-44.01 161.04,-101.45 219.01,-172.31 57.98,-70.85 100.38,-149.76 127.22,-236.72 26.84,-86.96 40.26,-172.31 40.26,-256.05l0 -772.98c0,-98.77 -13.42,-196.47 -40.26,-293.09 -26.84,-96.62 -69.24,-182.51 -127.22,-257.66 -57.97,-75.15 -131.51,-136.35 -220.62,-183.58 -89.1,-47.24 -194.85,-70.86 -317.24,-70.86l-1098.28 0c-21.47,0 -32.21,10.74 -32.21,32.21l0 2244.86c0,21.48 10.74,32.21 32.21,32.21zm434.8 -1858.38c0,-21.47 10.74,-32.2 32.21,-32.2l550.75 0c38.65,0 76.76,9.12 114.34,27.38 37.57,18.25 71.39,41.86 101.45,70.85 30.06,28.99 54.75,62.27 74.07,99.85 19.33,37.57 28.99,75.68 28.99,114.33l0 856.72c0,36.5 -8.59,72.47 -25.76,107.89 -17.18,35.44 -39.72,67.64 -67.64,96.63 -27.91,28.99 -59.58,52.61 -95.01,70.86 -35.43,18.24 -70.32,27.37 -104.68,27.37l-576.51 0c-21.47,0 -32.21,-10.74 -32.21,-32.21l0 -1407.47zm2583.05 898.59c53.68,0 100.38,4.84 140.1,14.5 39.72,9.66 70.32,26.3 91.79,49.92 25.76,30.06 40.79,63.88 45.09,101.46 4.29,37.57 6.44,73.53 6.44,107.89 0,23.62 -1.07,46.16 -3.22,67.64 -2.15,21.46 -8.59,44.01 -19.32,67.63 -10.74,25.77 -27.92,54.21 -51.54,85.35 -23.61,31.14 -51.53,46.7 -83.74,46.7l-1037.08 0c-21.47,0 -32.21,10.74 -32.21,32.21l0 354.28c0,21.48 10.74,32.21 32.21,32.21l1172.36 0c47.23,0 97.15,-14.49 149.76,-43.48 52.61,-28.99 97.16,-58.51 133.66,-88.57 120.24,-105.21 188.95,-255.51 206.13,-450.91 4.29,-17.17 6.44,-35.42 6.44,-54.75 0,-21.47 0,-44.02 0,-67.64 0,-49.38 -3.22,-100.91 -9.66,-154.59 -6.44,-53.68 -17.71,-105.22 -33.82,-154.6 -16.1,-49.38 -36.5,-95.54 -61.19,-138.49 -24.69,-42.95 -55.29,-79.44 -91.79,-109.5 -62.27,-51.54 -129.91,-86.43 -202.91,-104.68 -73,-18.25 -142.79,-27.37 -209.35,-27.37l-360.73 0c-49.38,0 -95.01,-2.16 -136.88,-6.45 -41.87,-4.29 -74.61,-18.25 -98.23,-41.87 -25.77,-27.91 -40.8,-60.12 -45.09,-96.62 -4.29,-36.5 -6.44,-71.93 -6.44,-106.28 0,-21.48 1.07,-42.95 3.22,-64.42 2.15,-21.47 8.59,-42.94 19.33,-64.42 10.73,-23.61 28.45,-48.84 53.14,-75.68 24.69,-26.84 52.07,-40.26 82.12,-40.26l930.81 0c21.46,0 32.2,-10.74 32.2,-32.21l0 -354.28c0,-21.47 -10.74,-32.21 -32.2,-32.21l-1066.07 0c-51.54,0 -104.15,13.95 -157.82,41.87 -53.68,27.91 -98.77,56.9 -135.27,86.96 -124.54,103.07 -194.33,248 -209.35,434.8 -4.3,19.32 -6.44,38.65 -6.44,57.97 0,19.33 0,39.73 0,61.2 0,49.39 3.75,99.3 11.27,149.77 7.51,50.45 19.32,99.84 35.43,148.15 16.1,48.31 36.5,93.4 61.19,135.27 24.69,41.87 55.29,77.84 91.79,107.9 62.27,49.38 131.52,82.66 207.74,99.84 76.23,17.18 147.62,25.76 214.18,25.76l363.95 0z"/>
  <path class="fil0" d="M14482.49 11752.08l374.36 0c41.6,0 77.36,-7.41 107.27,-22.23 29.92,-14.83 54.74,-34.17 74.44,-58.03 19.7,-23.87 34.11,-50.44 43.24,-79.73 9.12,-29.28 13.68,-58.03 13.68,-86.23l0 -260.32c0,-33.26 -4.56,-66.16 -13.68,-98.7 -9.13,-32.55 -23.54,-61.47 -43.24,-86.78 -19.7,-25.31 -44.69,-45.92 -74.98,-61.83 -30.29,-15.9 -66.22,-23.86 -107.83,-23.86l-373.26 0c-7.3,0 -10.94,3.62 -10.94,10.85l0 756.01c0,7.24 3.64,10.85 10.94,10.85zm147.77 -625.85c0,-7.24 3.65,-10.85 10.95,-10.85l187.18 0c13.13,0 26.09,3.07 38.86,9.22 12.77,6.14 24.26,14.1 34.48,23.86 10.22,9.76 18.61,20.97 25.18,33.63 6.57,12.65 9.85,25.49 9.85,38.5l0 288.53c0,12.29 -2.92,24.4 -8.76,36.33 -5.84,11.93 -13.5,22.78 -22.99,32.54 -9.49,9.76 -20.24,17.72 -32.29,23.86 -12.03,6.15 -23.9,9.22 -35.57,9.22l-195.94 0c-7.3,0 -10.95,-3.61 -10.95,-10.84l0 -474zm544.02 242.96c0,42.67 0.37,79.54 1.11,110.64 0.72,31.09 2.91,56.4 6.56,75.92 5.84,28.21 12.04,53.52 18.6,75.93 6.57,22.42 15.33,40.86 26.28,55.32 14.6,18.8 32.84,35.25 54.73,49.36 21.89,14.09 45.24,24.04 70.06,29.82 17.51,3.62 40.5,5.79 68.96,6.51 28.45,0.72 62.39,1.08 101.8,1.08 39.4,0 73.34,-0.36 101.8,-1.08 28.46,-0.72 51.44,-2.89 68.96,-6.51 24.81,-5.78 48.16,-15.73 70.05,-29.82 21.9,-14.11 40.14,-30.56 54.73,-49.36 10.95,-14.46 19.71,-32.9 26.28,-55.32 6.56,-22.41 12.76,-47.72 18.6,-75.93 3.66,-19.52 5.85,-44.83 6.58,-75.92 0.72,-31.1 1.09,-67.97 1.09,-110.64l0 -6.51c0,-42.66 -0.37,-79.54 -1.09,-110.63 -0.73,-31.1 -2.92,-56.41 -6.58,-75.93 -5.84,-28.2 -12.04,-53.51 -18.6,-75.93 -6.57,-22.41 -15.33,-40.85 -26.28,-55.32 -14.59,-18.79 -32.83,-35.24 -54.73,-49.35 -21.89,-14.1 -45.24,-24.04 -70.05,-29.83 -17.52,-3.61 -40.5,-5.78 -68.96,-6.5 -28.46,-0.73 -62.4,-1.09 -101.8,-1.09 -39.41,0 -73.35,0.36 -101.8,1.09 -28.46,0.72 -51.45,2.89 -68.96,6.5 -24.82,5.79 -48.17,15.73 -70.06,29.83 -21.89,14.11 -40.13,30.56 -54.73,49.35 -10.95,14.47 -19.71,32.91 -26.28,55.32 -6.56,22.42 -12.76,47.73 -18.6,75.93 -3.65,19.52 -5.84,44.83 -6.56,75.93 -0.74,31.09 -1.11,67.97 -1.11,110.63l0 6.51zm348.1 -261.41c22.62,0 44.14,0.55 64.58,1.63 20.44,1.09 37.95,3.44 52.54,7.05 26.27,6.51 44.88,19.35 55.83,38.51 10.94,19.16 16.42,47.9 16.42,86.23l0 249.47c0,38.33 -5.48,67.07 -16.42,86.23 -10.95,19.17 -29.56,32 -55.83,38.51 -14.59,3.62 -32.1,5.97 -52.54,7.06 -20.44,1.08 -41.96,1.62 -64.58,1.62 -22.62,0 -44.15,-0.54 -64.59,-1.62 -20.43,-1.09 -37.94,-3.44 -52.54,-7.06 -26.27,-6.51 -44.88,-19.34 -55.82,-38.51 -10.95,-19.16 -16.42,-47.9 -16.42,-86.23l0 -249.47c0,-38.33 5.47,-67.07 16.42,-86.23 10.94,-19.16 29.55,-32 55.82,-38.51 14.6,-3.61 32.11,-5.96 52.54,-7.05 20.44,-1.08 41.97,-1.63 64.59,-1.63zm719.17 637.79c0,4.34 2.91,6.51 8.76,6.51l142.29 0c7.3,0 12.05,-3.61 14.23,-10.85l58.02 -185.48c2.19,-7.95 6.93,-11.92 14.23,-11.92l257.23 0c7.3,0 12.04,3.61 14.23,10.84l58.02 187.65c2.19,6.5 6.93,9.76 14.23,9.76l143.4 0c5.1,0 7.66,-2.17 7.66,-6.51l-220.02 -707.2c-8.76,-28.2 -25,-45.92 -48.71,-53.15 -23.72,-7.23 -56.37,-10.85 -97.97,-10.85 -40.14,0 -71.88,3.62 -95.23,10.85 -23.36,7.23 -39.41,24.95 -48.17,53.15l-222.2 707.2zm455.36 -363.36c0,1.45 0.18,2.53 0.54,3.25 0.37,0.73 0.55,1.45 0.55,2.17 0,5.07 -2.92,7.6 -8.75,7.6l-163.11 0c-5.83,0 -8.75,-2.53 -8.75,-7.6 0,-0.72 0.19,-1.44 0.54,-2.17 0.37,-0.72 0.56,-1.8 0.56,-3.25l76.62 -247.31c4.38,-13.01 8.39,-19.52 12.04,-19.52 3.65,0 6.2,1.27 7.66,3.8 1.46,2.53 3.28,7.77 5.47,15.72l76.63 247.31zm724.64 -407.84l-226.59 0c-27.73,0 -53.64,6.87 -77.72,20.61 -24.08,13.74 -45.24,31.45 -63.48,53.15 -18.24,21.69 -32.65,45.56 -43.24,71.59 -10.59,26.03 -15.88,50.98 -15.88,74.84l0 308.05c0,27.47 4.75,55.86 14.24,85.14 9.49,29.29 23.54,56.05 42.14,80.27 18.61,24.23 41.41,44.29 68.41,60.2 27.01,15.91 58.02,23.86 93.05,23.86l190.46 0c43.06,0 79,-7.95 107.82,-23.86 28.83,-15.91 52,-34.89 69.51,-56.95 17.52,-22.05 30.1,-45.19 37.76,-69.42 7.67,-24.22 11.5,-44.65 11.5,-61.28l0 -244.05c0,-7.23 -3.65,-10.85 -10.95,-10.85l-340.43 0c-7.29,0 -10.95,3.62 -10.95,10.85l0 119.31c0,7.24 3.66,10.85 10.95,10.85l178.43 0c7.29,0 10.95,3.62 10.95,10.84l0 100.88c0,6.51 -1.65,13.92 -4.93,22.24 -3.28,8.31 -8.4,16.09 -15.33,23.32 -6.93,7.23 -15.68,13.37 -26.27,18.44 -10.58,5.06 -22.81,7.59 -36.67,7.59l-133.54 0c-28.46,0 -51.81,-12.3 -70.06,-36.88 -18.25,-24.58 -27.36,-56.77 -27.36,-96.54l0 -283.1c0,-6.51 2.74,-14.28 8.2,-23.31 5.48,-9.04 12.05,-17.72 19.7,-26.04 7.67,-8.31 15.88,-15.18 24.64,-20.6 8.76,-5.43 16.42,-8.14 22.99,-8.14l334.94 0c7.31,0 10.95,-3.61 10.95,-10.85l0 -119.31c0,-7.23 -3.64,-10.85 -10.95,-10.85l-142.29 0zm290.08 10.85l0 756.01c0,7.24 3.65,10.85 10.94,10.85l136.83 0c7.3,0 10.95,-3.61 10.95,-10.85l0 -265.74c0,-7.23 3.64,-10.85 10.94,-10.85l133.55 0c31.37,4.34 52.17,26.76 62.39,67.25l67.87 189.82c1.45,5.07 4.74,11.39 9.85,18.98 5.1,7.59 9.85,11.39 14.23,11.39l151.05 0c4.38,0 6.57,-1.81 6.57,-5.43 0,-1.44 -2,-4.51 -6.02,-9.21 -4.01,-4.7 -6.75,-9.95 -8.2,-15.73l-60.21 -183.31c-5.84,-17.36 -12.22,-34.17 -19.15,-50.43 -6.94,-16.28 -18.8,-35.26 -35.59,-56.95 -0.72,-1.45 -1.09,-2.89 -1.09,-4.34 0,-2.17 0.55,-3.98 1.65,-5.42 1.09,-1.45 2,-2.53 2.73,-3.26 18.97,-10.12 33.94,-21.15 44.88,-33.08 10.95,-11.93 21.53,-25.13 31.74,-39.59 15.33,-28.93 22.99,-75.2 22.99,-138.84l0 -24.95c-2.19,-68.69 -19.7,-120.03 -52.54,-154.02 -18.98,-19.52 -38.31,-33.26 -58.02,-41.22 -19.7,-7.95 -39.77,-11.93 -60.2,-11.93l-407.2 0c-7.29,0 -10.94,3.62 -10.94,10.85zm384.2 130.16c16.06,2.17 29.93,15.18 41.6,39.05 3.65,7.23 6.02,15 7.12,23.32 1.09,8.31 1.64,17.54 1.64,27.66 0,20.25 -2.74,38.68 -8.21,55.32 -5.47,16.63 -13.32,29.28 -23.53,37.96 -12.41,10.12 -23.72,15.19 -33.94,15.19l-198.12 0c-8.03,0 -12.04,-3.62 -12.04,-10.85l0 -176.8c0,-7.24 3.64,-10.85 10.94,-10.85l214.54 0zm310.88 522.81c0,13.74 3.1,27.3 9.31,40.68 6.2,13.38 14.41,25.49 24.62,36.33 10.22,10.85 21.9,19.71 35.03,26.58 13.14,6.87 26.27,10.3 39.41,10.3l423.62 0c7.29,0 10.94,-3.61 10.94,-10.85l0 -119.31c0,-7.23 -3.65,-10.85 -10.94,-10.85l-362.32 0c-7.3,0 -10.95,-3.61 -10.95,-10.84l0 -157.28c0,-7.23 3.65,-10.85 10.95,-10.85l336.05 0c7.29,0 10.94,-3.62 10.94,-10.84l0 -124.74c0,-7.23 -3.65,-10.85 -10.94,-10.85l-336.05 0c-7.3,0 -10.95,-3.61 -10.95,-10.85l0 -147.51c0,-7.96 3.65,-11.93 10.95,-11.93l362.32 0c7.29,0 10.94,-3.61 10.94,-10.85l0 -119.31c0,-7.23 -4.74,-10.85 -14.23,-10.85l-371.08 0c-51.07,0 -90.11,15.37 -117.12,46.1 -27,30.73 -40.5,70.68 -40.5,119.86l0 497.86zm961.08 -209.34c18.24,0 34.12,1.63 47.62,4.88 13.49,3.25 23.89,8.86 31.19,16.81 8.76,10.13 13.87,21.51 15.33,34.17 1.46,12.66 2.19,24.76 2.19,36.33 0,7.96 -0.37,15.55 -1.1,22.79 -0.73,7.23 -2.92,14.82 -6.57,22.77 -3.64,8.68 -9.48,18.26 -17.51,28.75 -8.03,10.48 -17.52,15.72 -28.47,15.72l-352.46 0c-7.3,0 -10.94,3.62 -10.94,10.85l0 119.31c0,7.24 3.64,10.85 10.94,10.85l398.44 0c16.06,0 33.02,-4.88 50.9,-14.64 17.88,-9.76 33.03,-19.7 45.43,-29.83 40.87,-35.44 64.22,-86.05 70.05,-151.86 1.46,-5.78 2.19,-11.92 2.19,-18.43 0,-7.24 0,-14.82 0,-22.78 0,-16.63 -1.09,-33.99 -3.28,-52.07 -2.19,-18.07 -6.02,-35.43 -11.49,-52.06 -5.48,-16.63 -12.41,-32.18 -20.8,-46.64 -8.39,-14.47 -18.79,-26.76 -31.19,-36.88 -21.17,-17.35 -44.15,-29.11 -68.97,-35.25 -24.81,-6.15 -48.52,-9.22 -71.14,-9.22l-122.6 0c-16.79,0 -32.3,-0.73 -46.52,-2.17 -14.24,-1.44 -25.36,-6.15 -33.39,-14.1 -8.76,-9.4 -13.87,-20.25 -15.33,-32.54 -1.46,-12.29 -2.19,-24.23 -2.19,-35.8 0,-7.23 0.37,-14.46 1.1,-21.69 0.73,-7.23 2.92,-14.46 6.56,-21.69 3.65,-7.96 9.67,-16.46 18.06,-25.49 8.4,-9.04 17.71,-13.56 27.92,-13.56l316.35 0c7.29,0 10.94,-3.61 10.94,-10.85l0 -119.31c0,-7.23 -3.65,-10.85 -10.94,-10.85l-362.33 0c-17.51,0 -35.39,4.7 -53.63,14.1 -18.25,9.4 -33.57,19.16 -45.97,29.29 -42.33,34.71 -66.05,83.52 -71.15,146.43 -1.47,6.51 -2.19,13.02 -2.19,19.52 0,6.51 0,13.38 0,20.61 0,16.63 1.27,33.45 3.82,50.44 2.56,16.99 6.58,33.63 12.05,49.89 5.47,16.28 12.4,31.46 20.79,45.56 8.4,14.1 18.8,26.21 31.2,36.33 21.17,16.64 44.69,27.85 70.61,33.63 25.9,5.79 50.17,8.68 72.78,8.68l123.7 0zm673.19 -302.62c0,-7.24 3.65,-10.85 10.95,-10.85l178.42 0c7.3,0 10.95,-3.61 10.95,-10.85l0 -119.31c0,-7.23 -3.65,-10.85 -10.95,-10.85l-537.46 0c-7.3,0 -10.94,3.62 -10.94,10.85l0 119.31c0,7.24 3.64,10.85 10.94,10.85l178.42 0c7.3,0 10.95,3.61 10.95,10.85l0 615c0,7.24 3.65,10.85 10.95,10.85l136.83 0c7.29,0 10.94,-3.61 10.94,-10.85l0 -615zm264.9 511.96c0,13.74 3.1,27.3 9.31,40.68 6.2,13.38 14.41,25.49 24.63,36.33 10.21,10.85 21.89,19.71 35.02,26.58 13.14,6.87 26.27,10.3 39.41,10.3l423.61 0c7.3,0 10.95,-3.61 10.95,-10.85l0 -119.31c0,-7.23 -3.65,-10.85 -10.95,-10.85l-362.31 0c-7.3,0 -10.94,-3.61 -10.94,-10.84l0 -157.28c0,-7.23 3.64,-10.85 10.94,-10.85l336.04 0c7.3,0 10.95,-3.62 10.95,-10.84l0 -124.74c0,-7.23 -3.65,-10.85 -10.95,-10.85l-336.04 0c-7.3,0 -10.94,-3.61 -10.94,-10.85l0 -147.51c0,-7.96 3.64,-11.93 10.94,-11.93l362.31 0c7.3,0 10.95,-3.61 10.95,-10.85l0 -119.31c0,-7.23 -4.74,-10.85 -14.23,-10.85l-371.08 0c-51.08,0 -90.12,15.37 -117.12,46.1 -27,30.73 -40.5,70.68 -40.5,119.86l0 497.86zm941.38 -641.04l0 744.08c0,7.24 3.64,10.85 10.95,10.85l136.82 0c7.3,0 10.95,-3.61 10.95,-10.85l0 -248.39c0,-7.23 3.64,-10.84 10.94,-10.84l190.46 0c40.88,0 75.54,-5.97 104,-17.9 28.45,-11.93 51.44,-29.11 68.95,-51.52 17.52,-22.42 30.29,-49.17 38.32,-80.27 8.03,-31.09 12.04,-65.8 12.04,-104.12 0,-36.89 -4.01,-70.87 -12.04,-101.96 -8.03,-31.1 -20.8,-57.86 -38.32,-80.27 -17.51,-22.42 -40.5,-39.95 -68.95,-52.61 -28.46,-12.65 -63.12,-18.98 -104,-18.98l-349.17 0c-7.31,0 -10.95,3.62 -10.95,10.85l0 11.93zm378.74 118.23c13.13,0 23.53,4.52 31.19,13.56 7.67,9.03 13.32,19.7 16.97,31.99 3.64,12.3 6.02,24.77 7.11,37.43 1.1,12.65 1.65,22.59 1.65,29.83 0,7.22 -0.55,17.17 -1.65,29.83 -1.09,12.65 -3.47,25.12 -7.11,37.41 -3.65,12.29 -9.3,22.96 -16.97,32 -7.66,9.04 -18.06,13.56 -31.19,13.56l-209.08 0c-7.3,0 -10.94,-3.61 -10.94,-10.85l0 -203.91c0,-7.24 3.64,-10.85 10.94,-10.85l209.08 0zm257.23 253.81c0,42.67 0.37,79.54 1.1,110.64 0.72,31.09 2.91,56.4 6.57,75.92 5.84,28.21 12.04,53.52 18.61,75.93 6.56,22.42 15.32,40.86 26.27,55.32 14.59,18.8 32.84,35.25 54.73,49.36 21.89,14.09 45.24,24.04 70.05,29.82 17.52,3.62 40.5,5.79 68.96,6.51 28.46,0.72 62.4,1.08 101.8,1.08 39.41,0 73.35,-0.36 101.8,-1.08 28.46,-0.72 51.45,-2.89 68.96,-6.51 24.82,-5.78 48.17,-15.73 70.06,-29.82 21.9,-14.11 40.13,-30.56 54.74,-49.36 10.94,-14.46 19.7,-32.9 26.27,-55.32 6.56,-22.41 12.77,-47.72 18.6,-75.93 3.65,-19.52 5.84,-44.83 6.57,-75.92 0.73,-31.1 1.1,-67.97 1.1,-110.64l0 -6.51c0,-42.66 -0.37,-79.54 -1.1,-110.63 -0.73,-31.1 -2.92,-56.41 -6.57,-75.93 -5.83,-28.2 -12.04,-53.51 -18.6,-75.93 -6.57,-22.41 -15.33,-40.85 -26.27,-55.32 -14.61,-18.79 -32.84,-35.24 -54.74,-49.35 -21.89,-14.1 -45.24,-24.04 -70.06,-29.83 -17.51,-3.61 -40.5,-5.78 -68.96,-6.5 -28.45,-0.73 -62.39,-1.09 -101.8,-1.09 -39.4,0 -73.34,0.36 -101.8,1.09 -28.46,0.72 -51.44,2.89 -68.96,6.5 -24.81,5.79 -48.16,15.73 -70.05,29.83 -21.89,14.11 -40.14,30.56 -54.73,49.35 -10.95,14.47 -19.71,32.91 -26.27,55.32 -6.57,22.42 -12.77,47.73 -18.61,75.93 -3.66,19.52 -5.85,44.83 -6.57,75.93 -0.73,31.09 -1.1,67.97 -1.1,110.63l0 6.51zm348.09 -261.41c22.63,0 44.15,0.55 64.59,1.63 20.43,1.09 37.94,3.44 52.54,7.05 26.27,6.51 44.88,19.35 55.82,38.51 10.95,19.16 16.43,47.9 16.43,86.23l0 249.47c0,38.33 -5.48,67.07 -16.43,86.23 -10.94,19.17 -29.55,32 -55.82,38.51 -14.6,3.62 -32.11,5.97 -52.54,7.06 -20.44,1.08 -41.96,1.62 -64.59,1.62 -22.62,0 -44.14,-0.54 -64.58,-1.62 -20.44,-1.09 -37.95,-3.44 -52.54,-7.06 -26.27,-6.51 -44.88,-19.34 -55.82,-38.51 -10.95,-19.16 -16.42,-47.9 -16.42,-86.23l0 -249.47c0,-38.33 5.47,-67.07 16.42,-86.23 10.94,-19.16 29.55,-32 55.82,-38.51 14.59,-3.61 32.1,-5.96 52.54,-7.05 20.44,-1.08 41.96,-1.63 64.58,-1.63zm767.34 18.45c0,-7.24 3.64,-10.85 10.94,-10.85l178.42 0c7.3,0 10.95,-3.61 10.95,-10.85l0 -119.31c0,-7.23 -3.65,-10.85 -10.95,-10.85l-537.46 0c-7.3,0 -10.94,3.62 -10.94,10.85l0 119.31c0,7.24 3.64,10.85 10.94,10.85l178.42 0c7.31,0 10.95,3.61 10.95,10.85l0 615c0,7.24 3.66,10.85 10.95,10.85l136.83 0c7.29,0 10.95,-3.61 10.95,-10.85l0 -615zm265.99 -141.01l0 756.01c0,7.24 3.65,10.85 10.94,10.85l136.83 0c7.3,0 10.95,-3.61 10.95,-10.85l0 -756.01c0,-7.23 -3.65,-10.85 -10.95,-10.85l-136.83 0c-7.29,0 -10.94,3.62 -10.94,10.85zm672.1 -10.85l-226.59 0c-27.73,0 -53.64,6.87 -77.72,20.61 -24.08,13.74 -45.25,31.45 -63.48,53.15 -18.25,21.69 -32.66,45.56 -43.24,71.59 -10.59,26.03 -15.87,50.98 -15.87,74.84l0 308.05c0,27.47 4.74,55.86 14.22,85.14 9.49,29.29 23.54,56.05 42.14,80.27 18.61,24.23 41.42,44.29 68.42,60.2 27,15.91 58.01,23.86 93.04,23.86l190.47 0c43.06,0 79,-7.95 107.82,-23.86 28.82,-15.91 51.99,-34.89 69.5,-56.95 17.52,-22.05 30.11,-45.19 37.77,-69.42 7.66,-24.22 11.5,-44.65 11.5,-61.28l0 -244.05c0,-7.23 -3.66,-10.85 -10.95,-10.85l-340.43 0c-7.3,0 -10.94,3.62 -10.94,10.85l0 119.31c0,7.24 3.64,10.85 10.94,10.85l178.42 0c7.3,0 10.95,3.62 10.95,10.84l0 100.88c0,6.51 -1.65,13.92 -4.92,22.24 -3.29,8.31 -8.4,16.09 -15.33,23.32 -6.93,7.23 -15.69,13.37 -26.27,18.44 -10.58,5.06 -22.8,7.59 -36.67,7.59l-133.54 0c-28.47,0 -51.82,-12.3 -70.06,-36.88 -18.25,-24.58 -27.37,-56.77 -27.37,-96.54l0 -283.1c0,-6.51 2.74,-14.28 8.21,-23.31 5.48,-9.04 12.04,-17.72 19.7,-26.04 7.67,-8.31 15.88,-15.18 24.64,-20.6 8.75,-5.43 16.41,-8.14 22.98,-8.14l334.96 0c7.29,0 10.94,-3.61 10.94,-10.85l0 -119.31c0,-7.23 -3.65,-10.85 -10.94,-10.85l-142.3 0zm722.45 10.85l0 528.24c0,9.39 -2.01,19.7 -6.02,30.91 -4.01,11.2 -9.49,21.69 -16.43,31.45 -6.93,9.76 -15.5,18.08 -25.72,24.95 -10.21,6.87 -21.52,10.3 -33.93,10.3l-114.94 0c-13.13,0 -24.62,-3.43 -34.47,-10.3 -9.86,-6.87 -18.07,-15.19 -24.64,-24.95 -6.57,-9.76 -11.49,-20.25 -14.78,-31.45 -3.28,-11.21 -4.92,-21.16 -4.92,-29.83l0 -529.32c0,-7.23 -3.64,-10.85 -10.95,-10.85l-136.82 0c-7.3,0 -10.95,3.62 -10.95,10.85l0 557.52c0,20.25 2.74,39.23 8.22,56.95 5.46,17.71 12.94,34.53 22.43,50.43 9.49,14.47 21.16,28.56 35.03,42.3 10.95,10.85 24.08,20.98 39.41,30.37 14.59,9.41 32.28,16.64 53.09,21.7 20.79,5.06 43.23,7.59 67.31,7.59l128.08 0c18.97,0 36.48,-1.63 52.53,-4.88 16.06,-3.26 30.66,-7.05 43.8,-11.39 13.13,-5.06 26.99,-11.39 41.59,-18.98 14.59,-7.59 27.36,-16.81 38.31,-27.66 10.21,-10.84 19.52,-22.6 27.92,-35.25 8.39,-12.66 14.76,-24.77 19.14,-36.34 5.11,-12.29 9.12,-28.38 12.05,-48.26 2.92,-19.89 4.38,-42.85 4.38,-68.88l0 -515.22c0,-7.23 -3.65,-10.85 -10.95,-10.85l-136.82 0c-7.3,0 -10.95,3.62 -10.95,10.85zm184.99 760.35c0,4.34 2.92,6.51 8.76,6.51l142.3 0c7.29,0 12.04,-3.61 14.23,-10.85l58.02 -185.48c2.18,-7.95 6.93,-11.92 14.22,-11.92l257.24 0c7.3,0 12.04,3.61 14.23,10.84l58.02 187.65c2.19,6.5 6.93,9.76 14.22,9.76l143.4 0c5.1,0 7.66,-2.17 7.66,-6.51l-220.02 -707.2c-8.75,-28.2 -24.99,-45.92 -48.7,-53.15 -23.72,-7.23 -56.38,-10.85 -97.97,-10.85 -40.14,0 -71.89,3.62 -95.24,10.85 -23.35,7.23 -39.4,24.95 -48.16,53.15l-222.21 707.2zm455.36 -363.36c0,1.45 0.19,2.53 0.54,3.25 0.37,0.73 0.56,1.45 0.56,2.17 0,5.07 -2.92,7.6 -8.75,7.6l-163.11 0c-5.84,0 -8.76,-2.53 -8.76,-7.6 0,-0.72 0.19,-1.44 0.55,-2.17 0.37,-0.72 0.55,-1.8 0.55,-3.25l76.63 -247.31c4.37,-13.01 8.39,-19.52 12.04,-19.52 3.64,0 6.2,1.27 7.66,3.8 1.46,2.53 3.28,7.77 5.47,15.72l76.62 247.31zm344.81 -396.99l0 756.01c0,7.24 3.65,10.85 10.95,10.85l136.82 0c7.31,0 10.95,-3.61 10.95,-10.85l0 -265.74c0,-7.23 3.64,-10.85 10.94,-10.85l133.55 0c31.38,4.34 52.18,26.76 62.39,67.25l67.87 189.82c1.45,5.07 4.75,11.39 9.86,18.98 5.1,7.59 9.84,11.39 14.22,11.39l151.06 0c4.38,0 6.57,-1.81 6.57,-5.43 0,-1.44 -2.01,-4.51 -6.02,-9.21 -4.01,-4.7 -6.75,-9.95 -8.21,-15.73l-60.2 -183.31c-5.85,-17.36 -12.23,-34.17 -19.16,-50.43 -6.94,-16.28 -18.79,-35.26 -35.58,-56.95 -0.73,-1.45 -1.09,-2.89 -1.09,-4.34 0,-2.17 0.55,-3.98 1.64,-5.42 1.1,-1.45 2.01,-2.53 2.74,-3.26 18.97,-10.12 33.93,-21.15 44.88,-33.08 10.95,-11.93 21.52,-25.13 31.73,-39.59 15.33,-28.93 23,-75.2 23,-138.84l0 -24.95c-2.19,-68.69 -19.7,-120.03 -52.54,-154.02 -18.98,-19.52 -38.32,-33.26 -58.02,-41.22 -19.7,-7.95 -39.77,-11.93 -60.21,-11.93l-407.19 0c-7.3,0 -10.95,3.62 -10.95,10.85zm384.21 130.16c16.05,2.17 29.92,15.18 41.6,39.05 3.65,7.23 6.01,15 7.12,23.32 1.08,8.31 1.64,17.54 1.64,27.66 0,20.25 -2.75,38.68 -8.21,55.32 -5.48,16.63 -13.33,29.28 -23.54,37.96 -12.4,10.12 -23.72,15.19 -33.93,15.19l-198.12 0c-8.04,0 -12.05,-3.62 -12.05,-10.85l0 -176.8c0,-7.24 3.64,-10.85 10.94,-10.85l214.55 0z"/>
  <polyline class="fil1 str0" points="12513.36,10997.18 12513.36,9833.97 12967.29,9353.86 12967.29,8760.82 "/>
  <polyline class="fil1 str0" points="12380.12,10998.11 12388.9,8760.82 12030.14,8460.64 12030.14,8072.6 "/>
  <polyline class="fil1 str0" points="11363.88,8072.6 11363.88,8270.28 11788.53,8665.64 11788.53,9031.72 12279.07,9555.21 12279.07,10998.11 "/>
  <polyline class="fil1 str0" points="12165.58,10998.11 12165.58,10585.7 11686.97,10106.14 11686.97,9941.41 11104.91,9384.97 11104.91,8963.98 10596.06,8466.12 10596.06,8356.3 "/>
  <path class="fil1 str1" d="M11881.81 9337.54c24.6,0 44.54,19.94 44.54,44.54 0,24.6 -19.94,44.54 -44.54,44.54 -24.59,0 -44.53,-19.94 -44.53,-44.54 0,-24.6 19.94,-44.54 44.53,-44.54z"/>
  <path class="fil1 str1" d="M12052.11 9535.23c24.6,0 44.53,19.93 44.53,44.53 0,24.6 -19.93,44.53 -44.53,44.53 -24.6,0 -44.54,-19.93 -44.54,-44.53 0,-24.6 19.94,-44.53 44.54,-44.53z"/>
  <path class="fil1 str1" d="M13344.05 9166.7c24.6,0 44.54,19.94 44.54,44.54 0,24.59 -19.94,44.54 -44.54,44.54 -24.6,0 -44.53,-19.95 -44.53,-44.54 0,-24.6 19.93,-44.54 44.53,-44.54z"/>
  <path class="fil1 str1" d="M12967.29 9579.76c24.6,0 44.54,19.94 44.54,44.53 0,24.6 -19.94,44.54 -44.54,44.54 -24.59,0 -44.53,-19.94 -44.53,-44.54 0,-24.59 19.94,-44.53 44.53,-44.53z"/>
  <path class="fil1 str1" d="M12749.48 8793.16c24.6,0 44.53,19.93 44.53,44.53 0,24.6 -19.93,44.54 -44.53,44.54 -24.6,0 -44.54,-19.94 -44.54,-44.54 0,-24.6 19.94,-44.53 44.54,-44.53z"/>
  <path class="fil1 str1" d="M13359.61 8686.4c24.59,0 44.53,19.93 44.53,44.53 0,24.6 -19.94,44.53 -44.53,44.53 -24.6,0 -44.54,-19.93 -44.54,-44.53 0,-24.6 19.94,-44.53 44.54,-44.53z"/>
  <path class="fil1 str1" d="M11996.29 8584.74c24.6,0 44.53,19.93 44.53,44.53 0,24.6 -19.93,44.53 -44.53,44.53 -24.6,0 -44.54,-19.93 -44.54,-44.53 0,-24.6 19.94,-44.53 44.54,-44.53z"/>
  <path class="fil1 str1" d="M12138.14 8809.02c24.59,0 44.53,19.93 44.53,44.53 0,24.6 -19.94,44.54 -44.53,44.54 -24.6,0 -44.54,-19.94 -44.54,-44.54 0,-24.6 19.94,-44.53 44.54,-44.53z"/>
  <path class="fil1 str1" d="M12522.82 8336.17c24.6,0 44.53,19.94 44.53,44.53 0,24.6 -19.93,44.54 -44.53,44.54 -24.6,0 -44.54,-19.94 -44.54,-44.54 0,-24.59 19.94,-44.53 44.54,-44.53z"/>
  <path class="fil1 str1" d="M12780.19 7977.61c24.59,0 44.53,19.94 44.53,44.54 0,24.6 -19.94,44.54 -44.53,44.54 -24.6,0 -44.54,-19.94 -44.54,-44.54 0,-24.6 19.94,-44.54 44.54,-44.54z"/>
  <path class="fil1 str1" d="M13180.44 8301.77c24.59,0 44.53,19.93 44.53,44.53 0,24.6 -19.94,44.53 -44.53,44.53 -24.6,0 -44.54,-19.93 -44.54,-44.53 0,-24.6 19.94,-44.53 44.54,-44.53z"/>
  <path class="fil1 str1" d="M12344.36 7830.73c24.6,0 44.54,19.94 44.54,44.53 0,24.6 -19.94,44.54 -44.54,44.54 -24.59,0 -44.53,-19.94 -44.53,-44.54 0,-24.59 19.94,-44.53 44.53,-44.53z"/>
  <path class="fil1 str1" d="M12179.89 7686.75c24.6,0 44.54,19.93 44.54,44.53 0,24.6 -19.94,44.54 -44.54,44.54 -24.59,0 -44.53,-19.94 -44.53,-44.54 0,-24.6 19.94,-44.53 44.53,-44.53z"/>
  <path class="fil1 str1" d="M11815.99 7615.5c24.6,0 44.53,19.93 44.53,44.53 0,24.6 -19.93,44.54 -44.53,44.54 -24.6,0 -44.53,-19.94 -44.53,-44.54 0,-24.6 19.93,-44.53 44.53,-44.53z"/>
  <polyline class="fil1 str1" points="11104.91,9323.65 10640.6,8898.09 10640.6,8762.87 "/>
  <polyline class="fil1 str1" points="10640.6,8830.48 10383.58,8584.74 10383.58,8504.19 "/>
  <polyline class="fil1 str2" points="10788.95,8022.14 10788.95,8161.95 10596.06,8356.3 10472.65,8266.89 10472.65,8183.93 "/>
  <polyline class="fil1 str2" points="11104.91,9130.8 11481.8,8775.47 11481.8,8607.6 "/>
  <polyline class="fil1 str1" points="11481.8,8697.62 11049.93,8264.42 11044.63,7896.46 "/>
  <polyline class="fil1 str2" points="11560.15,7710.97 11560.15,7830.73 11363.88,8072.6 11206.27,7875.27 11206.27,7781.75 "/>
  <polyline class="fil1 str2" points="11701.51,9981.2 11881.81,9798.16 11881.81,9426.61 "/>
  <polyline class="fil1 str1" points="11881.81,9661.49 11586.81,9382.08 11586.81,9185.01 "/>
  <polyline class="fil1 str1" points="11785.42,8969.63 11996.29,8775.47 11996.29,8673.8 "/>
  <polyline class="fil1 str1" points="12030.14,8377.04 11709.02,8072.6 11709.02,7977.61 "/>
  <line class="fil1 str2" x1="11815.99" y1="7704.56" x2="11815.99" y2= "7875.27" />
  <polyline class="fil1 str2" points="11815.99,7860.34 12030.14,8072.6 12179.9,7919.8 12179.9,7775.81 "/>
  <polyline class="fil1 str1" points="12052.11,9624.29 12052.11,10081.19 12253.06,10278.87 "/>
  <polyline class="fil1 str1" points="12387.03,9341.72 12138.13,9130.8 12138.13,8898.08 "/>
  <polyline class="fil1 str1" points="12344.36,7919.8 12344.36,8066.68 12040.82,8346.3 "/>
  <polyline class="fil1 str2" points="12525.8,10417.36 12967.29,9982.94 12967.29,9668.83 "/>
  <polyline class="fil1 str1" points="12967.29,9848.68 13344.05,9477.72 13344.05,9255.77 "/>
  <polyline class="fil1 str1" points="13359.6,8775.46 13359.6,8898.09 12967.29,9255.77 "/>
  <polyline class="fil1 str1" points="12396.22,9624.29 12746.54,9255.77 12749.48,8882.22 "/>
  <polyline class="fil1 str1" points="12747.35,9153.14 12513.36,8948.84 12522.82,8425.23 "/>
  <polyline class="fil1 str1" points="13180.43,8390.83 13180.43,8563.07 12967.29,8760.82 12780.19,8563.07 12780.19,8066.68 "/>
  <path class="fil1 str1" d="M10383.57 8415.12c24.6,0 44.54,19.94 44.54,44.54 0,24.59 -19.94,44.53 -44.54,44.53 -24.59,0 -44.53,-19.94 -44.53,-44.53 0,-24.6 19.94,-44.54 44.53,-44.54z"/>
  <path class="fil1 str1" d="M10640.6 8673.8c24.59,0 44.53,19.94 44.53,44.54 0,24.6 -19.94,44.53 -44.53,44.53 -24.6,0 -44.54,-19.93 -44.54,-44.53 0,-24.6 19.94,-44.54 44.54,-44.54z"/>
  <path class="fil1 str1" d="M11481.8 8518.53c24.59,0 44.53,19.94 44.53,44.54 0,24.6 -19.94,44.54 -44.53,44.54 -24.6,0 -44.54,-19.94 -44.54,-44.54 0,-24.6 19.94,-44.54 44.54,-44.54z"/>
  <path class="fil1 str1" d="M11586.81 9095.95c24.6,0 44.53,19.93 44.53,44.53 0,24.6 -19.93,44.54 -44.53,44.54 -24.6,0 -44.54,-19.94 -44.54,-44.54 0,-24.6 19.94,-44.53 44.54,-44.53z"/>
  <path class="fil1 str1" d="M10472.64 8094.86c24.6,0 44.54,19.94 44.54,44.54 0,24.6 -19.94,44.54 -44.54,44.54 -24.59,0 -44.53,-19.94 -44.53,-44.54 0,-24.6 19.94,-44.54 44.53,-44.54z"/>
  <path class="fil1 str1" d="M10788.95 7933.08c24.59,0 44.53,19.94 44.53,44.53 0,24.6 -19.94,44.54 -44.53,44.54 -24.6,0 -44.54,-19.94 -44.54,-44.54 0,-24.59 19.94,-44.53 44.54,-44.53z"/>
  <path class="fil1 str1" d="M11043.98 7807.39c24.59,0 44.53,19.94 44.53,44.54 0,24.59 -19.94,44.53 -44.53,44.53 -24.6,0 -44.54,-19.94 -44.54,-44.53 0,-24.6 19.94,-44.54 44.54,-44.54z"/>
  <path class="fil1 str1" d="M11206.27 7692.68c24.6,0 44.54,19.94 44.54,44.54 0,24.59 -19.94,44.53 -44.54,44.53 -24.6,0 -44.53,-19.94 -44.53,-44.53 0,-24.6 19.93,-44.54 44.53,-44.54z"/>
  <path class="fil1 str1" d="M11560.15 7621.91c24.6,0 44.54,19.93 44.54,44.53 0,24.6 -19.94,44.54 -44.54,44.54 -24.6,0 -44.53,-19.94 -44.53,-44.54 0,-24.6 19.93,-44.53 44.53,-44.53z"/>
  <path class="fil1 str1" d="M11709.02 7888.54c24.6,0 44.54,19.94 44.54,44.54 0,24.59 -19.94,44.53 -44.54,44.53 -24.6,0 -44.53,-19.94 -44.53,-44.53 0,-24.6 19.93,-44.54 44.53,-44.54z"/>
  <polyline class="fil1 str3" points="12161.76,11048.63 11215.04,11447.1 10985.49,11247.86 10643.34,11607.35 "/>
  <polyline class="fil1 str3" points="12271.19,11048.63 12381.01,11767.6 12022.26,11564.04 11574.52,11880.21 11111.1,11810.91 11002.82,12031.79 "/>
  <line class="fil1 str3" x1="12371.35" y1="11056.75" x2="12583.66" y2= "11540.21" />
  <polyline class="fil1 str3" points="12573.45,11516.46 12895.5,11473.09 12795.88,11932.18 13419.56,12196.38 "/>
  <polyline class="fil1 str3" points="12505.47,11047.7 13363.26,11294.42 13237.66,11607.35 13865.67,11884.54 "/>
  <polyline class="fil1 str1" points="11915.41,11152.31 11589.09,11083.28 11402.55,11152.31 "/>
  <polyline class="fil1 str1" points="11351.92,11389.49 11233.94,11298.48 11233.94,11152.31 "/>
  <polyline class="fil1 str2" points="10918.53,11318.21 10848.47,11196.43 10643.34,11327.99 "/>
  <polyline class="fil1 str1" points="10785.71,11457.77 10780.94,11607.35 10918.53,11540.21 "/>
  <polyline class="fil1 str2" points="11292.93,11834.73 11467.81,11607.35 11658.98,11607.35 "/>
  <polyline class="fil1 str1" points="11820.83,11706.28 11813.59,11884.54 12044.22,11884.54 "/>
  <polyline class="fil1 str1" points="11911.29,11642.4 11928.91,11415.02 11783.78,11415.02 "/>
  <polyline class="fil1 str1" points="12114.97,11616.64 12144.7,11457.77 12114.97,11327.99 "/>
  <line class="fil1 str1" x1="12334.22" y1="11461.26" x2="12477.51" y2= "11607.35" />
  <line class="fil1 str1" x1="12475.66" y1="11603.59" x2="12477.51" y2= "11721.04" />
  <polyline class="fil1 str1" points="12381.01,11767.6 12371.35,11884.54 12291.32,11974.27 "/>
  <line class="fil1 str1" x1="11186.29" y1="11834.73" x2="11155.98" y2= "12031.79" />
  <line class="fil1 str1" x1="11157.09" y1="12026.49" x2="11288.26" y2= "12064.05" />
  <polyline class="fil1 str1" points="12583.66,11499.62 12702.16,11384.84 12829.93,11327.99 "/>
  <polyline class="fil1 str1" points="12427.62,11184.87 12624.2,11152.31 12583.66,11231.09 "/>
  <polyline class="fil1 str2" points="12882.82,11540.21 13029.16,11683.69 12994.28,11739.55 "/>
  <line class="fil1 str1" x1="12910.06" y1="11967.37" x2="13171.22" y2= "11907.55" />
  <line class="fil1 str1" x1="13168.53" y1="11912.52" x2="13185.57" y2= "11826.07" />
  <polyline class="fil1 str1" points="12799.97,11132.4 12753.39,11195.82 12741.24,11234.34 "/>
  <polyline class="fil1 str1" points="12993.79,11174.03 13217.67,11139.51 13319.45,11174.03 "/>
  <polyline class="fil1 str2" points="13293.18,11476.23 13411.68,11361.46 13539.45,11304.6 "/>
  <line class="fil1 str1" x1="13639.6" y1="11510.32" x2="13364.08" y2= "11568.79" />
  <line class="fil1 str1" x1="13370.39" y1="11567.45" x2="13364.08" y2= "11651.62" />
  <line class="fil1 str1" x1="13613.65" y1="12018.8" x2="13354.22" y2= "12078.49" />
  <line class="fil1 str1" x1="13355.17" y1="12073.65" x2="13338.13" y2= "12160.1" />
  <line class="fil1 str1" x1="13920.63" y1="11650.29" x2="13816.13" y2= "11749.28" />
  <line class="fil1 str1" x1="13816.13" y1="11744.65" x2="13839.78" y2= "11882.46" />
  <path class="fil1 str1" d="M10607.35 11304.87c24.6,0 44.54,19.94 44.54,44.54 0,24.59 -19.94,44.53 -44.54,44.53 -24.6,0 -44.53,-19.94 -44.53,-44.53 0,-24.6 19.93,-44.54 44.53,-44.54z"/>
  <path class="fil1 str1" d="M10958.28 11473.34c24.59,0 44.53,19.94 44.53,44.54 0,24.59 -19.94,44.53 -44.53,44.53 -24.6,0 -44.54,-19.94 -44.54,-44.53 0,-24.6 19.94,-44.54 44.54,-44.54z"/>
  <path class="fil1 str1" d="M11233.94 11063.24c24.59,0 44.53,19.94 44.53,44.53 0,24.6 -19.94,44.54 -44.53,44.54 -24.6,0 -44.54,-19.94 -44.54,-44.54 0,-24.59 19.94,-44.53 44.54,-44.53z"/>
  <path class="fil1 str1" d="M11363.33 11121.98c24.59,0 44.53,19.94 44.53,44.54 0,24.59 -19.94,44.53 -44.53,44.53 -24.6,0 -44.54,-19.94 -44.54,-44.53 0,-24.6 19.94,-44.54 44.54,-44.54z"/>
  <path class="fil1 str1" d="M11703.52 11562.81c24.6,0 44.53,19.94 44.53,44.54 0,24.59 -19.93,44.53 -44.53,44.53 -24.6,0 -44.54,-19.94 -44.54,-44.53 0,-24.6 19.94,-44.54 44.54,-44.54z"/>
  <path class="fil1 str1" d="M11739.24 11368.69c24.6,0 44.53,19.94 44.53,44.54 0,24.59 -19.93,44.53 -44.53,44.53 -24.6,0 -44.54,-19.94 -44.54,-44.53 0,-24.6 19.94,-44.54 44.54,-44.54z"/>
  <path class="fil1 str1" d="M11325.81 12030.33c24.6,0 44.54,19.93 44.54,44.53 0,24.6 -19.94,44.53 -44.54,44.53 -24.59,0 -44.53,-19.93 -44.53,-44.53 0,-24.6 19.94,-44.53 44.53,-44.53z"/>
  <path class="fil1 str1" d="M12083.21 11840c24.6,0 44.53,19.94 44.53,44.53 0,24.6 -19.93,44.54 -44.53,44.54 -24.6,0 -44.54,-19.94 -44.54,-44.54 0,-24.59 19.94,-44.53 44.54,-44.53z"/>
  <path class="fil1 str1" d="M12477.5 11721.04c24.6,0 44.54,19.94 44.54,44.54 0,24.59 -19.94,44.53 -44.54,44.53 -24.6,0 -44.53,-19.94 -44.53,-44.53 0,-24.6 19.93,-44.54 44.53,-44.54z"/>
  <path class="fil1 str1" d="M12874.47 11271.54c24.6,0 44.54,19.94 44.54,44.54 0,24.59 -19.94,44.53 -44.54,44.53 -24.6,0 -44.53,-19.94 -44.53,-44.53 0,-24.6 19.93,-44.54 44.53,-44.54z"/>
  <path class="fil1 str1" d="M12561.12 11223.36c24.6,0 44.54,19.94 44.54,44.54 0,24.6 -19.94,44.54 -44.54,44.54 -24.6,0 -44.53,-19.94 -44.53,-44.54 0,-24.6 19.93,-44.54 44.53,-44.54z"/>
  <path class="fil1 str1" d="M12100.16 11238.91c24.6,0 44.53,19.94 44.53,44.54 0,24.6 -19.93,44.54 -44.53,44.54 -24.6,0 -44.54,-19.94 -44.54,-44.54 0,-24.6 19.94,-44.54 44.54,-44.54z"/>
  <path class="fil1 str1" d="M13355.71 11145.27c24.6,0 44.54,19.94 44.54,44.54 0,24.59 -19.94,44.53 -44.54,44.53 -24.59,0 -44.53,-19.94 -44.53,-44.53 0,-24.6 19.94,-44.54 44.53,-44.54z"/>
  <path class="fil1 str1" d="M13577.64 11241.89c24.6,0 44.54,19.94 44.54,44.54 0,24.59 -19.94,44.53 -44.54,44.53 -24.6,0 -44.53,-19.94 -44.53,-44.53 0,-24.6 19.93,-44.54 44.53,-44.54z"/>
  <path class="fil1 str1" d="M13684.13 11451.14c24.6,0 44.54,19.94 44.54,44.53 0,24.6 -19.94,44.54 -44.54,44.54 -24.59,0 -44.53,-19.94 -44.53,-44.54 0,-24.59 19.94,-44.53 44.53,-44.53z"/>
  <path class="fil1 str1" d="M13658.18 11974.27c24.6,0 44.54,19.94 44.54,44.54 0,24.59 -19.94,44.53 -44.54,44.53 -24.6,0 -44.53,-19.94 -44.53,-44.53 0,-24.6 19.93,-44.54 44.53,-44.54z"/>
  <path class="fil1 str1" d="M13196.02 11740.07c24.6,0 44.54,19.94 44.54,44.54 0,24.6 -19.94,44.54 -44.54,44.54 -24.59,0 -44.53,-19.94 -44.53,-44.54 0,-24.6 19.94,-44.54 44.53,-44.54z"/>
  <path class="fil1 str1" d="M12969.23 11732.4c24.6,0 44.54,19.93 44.54,44.53 0,24.6 -19.94,44.54 -44.54,44.54 -24.59,0 -44.53,-19.94 -44.53,-44.54 0,-24.6 19.94,-44.53 44.53,-44.53z"/>
  <path class="fil1 str1" d="M12264.58 11962.89c24.59,0 44.53,19.94 44.53,44.54 0,24.6 -19.94,44.53 -44.53,44.53 -24.6,0 -44.54,-19.93 -44.54,-44.53 0,-24.6 19.94,-44.54 44.54,-44.54z"/>
  <path class="fil1 str1" d="M13950.79 11574.57c24.6,0 44.54,19.94 44.54,44.53 0,24.6 -19.94,44.54 -44.54,44.54 -24.6,0 -44.53,-19.94 -44.53,-44.54 0,-24.59 19.93,-44.53 44.53,-44.53z"/>
  <path class="fil1 str1" d="M12741.24 11231.09c24.6,0 44.53,19.93 44.53,44.53 0,24.6 -19.93,44.54 -44.53,44.54 -24.6,0 -44.54,-19.94 -44.54,-44.54 0,-24.6 19.94,-44.53 44.54,-44.53z"/>
  <polyline class="fil1 str1" points="11471.36,11340.23 11476.14,11489.81 11386.75,11508.33 "/>
  <path class="fil1 str1" d="M11343.32 11473.75c-24.59,0 -44.53,19.93 -44.53,44.53 0,24.6 19.94,44.53 44.53,44.53 24.6,0 44.54,-19.93 44.54,-44.53 0,-24.6 -19.94,-44.53 -44.54,-44.53z"/>
  <line class="fil1 str1" x1="12910.06" y1="12237.73" x2="13168.53" y2= "12179.26" />
  <line class="fil1 str1" x1="13168.53" y1="12182.87" x2="13185.57" y2= "12096.42" />
  <path class="fil1 str1" d="M12873.41 12231.74c-24.6,0 -44.54,-19.94 -44.54,-44.53 0,-24.6 19.94,-44.54 44.54,-44.54 24.6,0 44.53,19.94 44.53,44.54 0,24.59 -19.93,44.53 -44.53,44.53z"/>
  <polyline class="fil1 str1" points="12799.97,11924.75 12753.39,11988.17 12741.24,12026.7 "/>
  <path class="fil1 str1" d="M12741.24 12023.44c24.6,0 44.53,19.94 44.53,44.53 0,24.6 -19.93,44.54 -44.53,44.54 -24.6,0 -44.54,-19.94 -44.54,-44.54 0,-24.59 19.94,-44.53 44.54,-44.53z"/>
  <line class="fil1 str1" x1="12848.1" y1="11487.89" x2="12704.81" y2= "11633.98" />
  <line class="fil1 str1" x1="12706.65" y1="11630.22" x2="12704.81" y2= "11747.67" />
  <path class="fil1 str1" d="M12704.81 11747.67c-24.6,0 -44.53,19.94 -44.53,44.53 0,24.6 19.93,44.54 44.53,44.54 24.6,0 44.54,-19.94 44.54,-44.54 0,-24.59 -19.94,-44.53 -44.54,-44.53z"/>
 </g>
</svg>
